<svg width="25" height="25" viewBox="0 0 25 25" fill="currentColor" xmlns="http://www.w3.org/2000/svg">
<g clip-path="url(#clip0_2851_23851)">
<path fill-rule="evenodd" clip-rule="evenodd" d="M17.3652 13.677C18.7923 14.6458 19.7923 15.9583 19.7923 17.7083V20.8333H22.9173C23.4902 20.8333 23.959 20.3645 23.959 19.7916V17.7083C23.959 15.4374 20.2402 14.0937 17.3652 13.677Z" fill="current"/>
<path d="M9.37565 12.5C11.6768 12.5 13.5423 10.6345 13.5423 8.33329C13.5423 6.03211 11.6768 4.16663 9.37565 4.16663C7.07446 4.16663 5.20898 6.03211 5.20898 8.33329C5.20898 10.6345 7.07446 12.5 9.37565 12.5Z" fill="current"/>
<path fill-rule="evenodd" clip-rule="evenodd" d="M15.6257 12.5C17.9277 12.5 19.7923 10.6354 19.7923 8.33329C19.7923 6.03121 17.9277 4.16663 15.6257 4.16663C15.1361 4.16663 14.6777 4.27079 14.2402 4.41663C15.1048 5.48954 15.6257 6.85413 15.6257 8.33329C15.6257 9.81246 15.1048 11.177 14.2402 12.25C14.6777 12.3958 15.1361 12.5 15.6257 12.5Z" fill="current"/>
<path fill-rule="evenodd" clip-rule="evenodd" d="M9.37533 13.5416C6.59408 13.5416 1.04199 14.9375 1.04199 17.7083V19.7916C1.04199 20.3645 1.51074 20.8333 2.08366 20.8333H16.667C17.2399 20.8333 17.7087 20.3645 17.7087 19.7916V17.7083C17.7087 14.9375 12.1566 13.5416 9.37533 13.5416Z" fill="current"/>
</g>
<defs>
<clipPath id="clip0_2851_23851">
<rect width="25" height="25" fill="white"/>
</clipPath>
</defs>
</svg>
