<svg width="25" height="25" viewBox="0 0 25 25" fill="currentColor" xmlns="http://www.w3.org/2000/svg">
<g clip-path="url(#clip0_2851_23848)">
<path d="M4.16667 13.5417H10.4167C10.9896 13.5417 11.4583 13.0729 11.4583 12.5V4.16667C11.4583 3.59375 10.9896 3.125 10.4167 3.125H4.16667C3.59375 3.125 3.125 3.59375 3.125 4.16667V12.5C3.125 13.0729 3.59375 13.5417 4.16667 13.5417ZM4.16667 21.875H10.4167C10.9896 21.875 11.4583 21.4062 11.4583 20.8333V16.6667C11.4583 16.0937 10.9896 15.625 10.4167 15.625H4.16667C3.59375 15.625 3.125 16.0937 3.125 16.6667V20.8333C3.125 21.4062 3.59375 21.875 4.16667 21.875ZM14.5833 21.875H20.8333C21.4062 21.875 21.875 21.4062 21.875 20.8333V12.5C21.875 11.9271 21.4062 11.4583 20.8333 11.4583H14.5833C14.0104 11.4583 13.5417 11.9271 13.5417 12.5V20.8333C13.5417 21.4062 14.0104 21.875 14.5833 21.875ZM13.5417 4.16667V8.33333C13.5417 8.90625 14.0104 9.375 14.5833 9.375H20.8333C21.4062 9.375 21.875 8.90625 21.875 8.33333V4.16667C21.875 3.59375 21.4062 3.125 20.8333 3.125H14.5833C14.0104 3.125 13.5417 3.59375 13.5417 4.16667Z" fill="current"/>
</g>
<defs>
<clipPath id="clip0_2851_23848">
<rect width="25" height="25" fill="white"/>
</clipPath>
</defs>
</svg>
