<svg width="22" height="22" viewBox="0 0 22 22" fill="none" xmlns="http://www.w3.org/2000/svg">
<path d="M13.462 10.5531L5.85205 9.21252V19.1187C5.85214 19.2263 5.87343 19.3329 5.91469 19.4323C5.95596 19.5317 6.0164 19.622 6.09256 19.698C6.16872 19.774 6.25912 19.8343 6.35858 19.8754C6.45804 19.9165 6.56462 19.9376 6.67224 19.9375H19.8035C19.9112 19.9378 20.018 19.9168 20.1176 19.8758C20.2172 19.8348 20.3077 19.7745 20.3841 19.6985C20.4604 19.6224 20.5209 19.5321 20.5623 19.4326C20.6036 19.3331 20.625 19.2264 20.625 19.1187V15.4688L13.462 10.5531Z" fill="#185C37"/>
<path d="M13.462 2.0625H6.67224C6.56462 2.06241 6.45804 2.08352 6.35858 2.12462C6.25912 2.16572 6.16872 2.22601 6.09256 2.30204C6.0164 2.37807 5.95596 2.46836 5.91469 2.56776C5.87343 2.66715 5.85214 2.77369 5.85205 2.88131V6.53125L13.462 11L17.4914 12.3406L20.625 11V6.53125L13.462 2.0625Z" fill="#21A366"/>
<path d="M5.85205 6.53125H13.462V11H5.85205V6.53125Z" fill="#107C41"/>
<path opacity="0.1" d="M11.2984 5.63751H5.85205V16.8094H11.2984C11.5154 16.8083 11.7233 16.7218 11.877 16.5685C12.0306 16.4152 12.1177 16.2076 12.1193 15.9906V6.45632C12.1177 6.23931 12.0306 6.03167 11.877 5.87841C11.7233 5.72514 11.5154 5.63859 11.2984 5.63751Z" fill="black"/>
<path opacity="0.2" d="M10.8509 6.08435H5.85205V17.2562H10.8509C11.0679 17.2551 11.2757 17.1686 11.4294 17.0153C11.583 16.8621 11.6701 16.6544 11.6717 16.4374V6.90316C11.6701 6.68615 11.583 6.47851 11.4294 6.32524C11.2757 6.17198 11.0679 6.08543 10.8509 6.08435Z" fill="black"/>
<path opacity="0.2" d="M10.8509 6.08435H5.85205V16.3625H10.8509C11.0679 16.3614 11.2757 16.2748 11.4294 16.1216C11.583 15.9683 11.6701 15.7607 11.6717 15.5437V6.90316C11.6701 6.68615 11.583 6.47851 11.4294 6.32524C11.2757 6.17198 11.0679 6.08543 10.8509 6.08435Z" fill="black"/>
<path opacity="0.2" d="M10.4033 6.08435H5.85205V16.3625H10.4033C10.6203 16.3614 10.8282 16.2748 10.9818 16.1216C11.1355 15.9683 11.2226 15.7607 11.2242 15.5437V6.90316C11.2226 6.68615 11.1355 6.47851 10.9818 6.32524C10.8282 6.17198 10.6203 6.08543 10.4033 6.08435Z" fill="black"/>
<path d="M2.19587 6.08435H10.4032C10.6207 6.08417 10.8292 6.17031 10.9832 6.32385C11.1371 6.47739 11.2238 6.68576 11.2241 6.90316V15.0968C11.2238 15.3142 11.1371 15.5226 10.9832 15.6761C10.8292 15.8296 10.6207 15.9158 10.4032 15.9156H2.19587C2.0882 15.9158 1.98154 15.8947 1.882 15.8537C1.78246 15.8126 1.69199 15.7523 1.61576 15.6763C1.53952 15.6003 1.47902 15.5099 1.43771 15.4105C1.3964 15.3111 1.37509 15.2045 1.375 15.0968V6.90316C1.37509 6.79549 1.3964 6.68888 1.43771 6.58945C1.47902 6.49001 1.53952 6.39969 1.61576 6.32365C1.69199 6.24761 1.78246 6.18733 1.882 6.14627C1.98154 6.10521 2.0882 6.08417 2.19587 6.08435Z" fill="url(#paint0_linear_2851_23752)"/>
<path d="M3.91895 13.6627L5.64526 10.9925L4.06401 8.33734H5.33382L6.19663 10.0375C6.27638 10.1984 6.33413 10.318 6.36026 10.3978H6.37195C6.42832 10.2685 6.48813 10.1441 6.5507 10.0224L7.47332 8.34009H8.64207L7.02026 10.9801L8.68332 13.6648H7.43963L6.44276 11.801C6.39647 11.7208 6.35714 11.6369 6.3252 11.55H6.3087C6.27963 11.6346 6.24087 11.7156 6.1932 11.7913L5.16676 13.6627H3.91895Z" fill="white"/>
<path d="M19.8041 2.0625H13.4619V6.53125H20.625V2.88131C20.6249 2.77364 20.6036 2.66703 20.5623 2.5676C20.521 2.46816 20.4605 2.37784 20.3842 2.3018C20.308 2.22575 20.2175 2.16548 20.118 2.12442C20.0184 2.08336 19.9118 2.06232 19.8041 2.0625Z" fill="#33C481"/>
<path d="M13.4619 11H20.625V15.4688H13.4619V11Z" fill="#107C41"/>
<defs>
<linearGradient id="paint0_linear_2851_23752" x1="3.08962" y1="5.44085" x2="9.5095" y2="16.5591" gradientUnits="userSpaceOnUse">
<stop stop-color="#18884F"/>
<stop offset="0.5" stop-color="#117E43"/>
<stop offset="1" stop-color="#0B6631"/>
</linearGradient>
</defs>
</svg>
