<svg width="25" height="25" viewBox="0 0 25 25" fill="currentColor" xmlns="http://www.w3.org/2000/svg">
<g clip-path="url(#clip0_2851_23863)">
<path d="M18.75 12.5C18.75 13.0729 19.2187 13.5416 19.7917 13.5416H21.875C22.4479 13.5416 22.9167 13.0729 22.9167 12.5C22.9167 11.9271 22.4479 11.4583 21.875 11.4583H19.7917C19.2187 11.4583 18.75 11.9271 18.75 12.5Z" fill="#current"/>
<path d="M17.2814 17.5208C16.9377 17.9792 17.0314 18.6146 17.4898 18.9479C18.0419 19.3542 18.6252 19.7917 19.1773 20.2083C19.6356 20.5521 20.2814 20.4583 20.6148 20C20.6148 19.9896 20.6252 19.9896 20.6252 19.9792C20.9689 19.5208 20.8752 18.875 20.4169 18.5417C19.8648 18.125 19.2814 17.6875 18.7398 17.2813C18.2814 16.9375 17.6356 17.0417 17.2919 17.5C17.2919 17.5104 17.2814 17.5208 17.2814 17.5208Z" fill="#current"/>
<path d="M20.6352 5.01042C20.6352 5.00001 20.6248 5.00001 20.6248 4.98959C20.281 4.53126 19.6352 4.43751 19.1873 4.78126C18.6352 5.19792 18.0414 5.63542 17.4998 6.05209C17.0414 6.39584 16.9581 7.04167 17.3019 7.48959C17.3019 7.50001 17.3123 7.50001 17.3123 7.51042C17.656 7.96876 18.2914 8.06251 18.7498 7.71876C19.3019 7.31251 19.8852 6.86459 20.4373 6.44792C20.8852 6.11459 20.9685 5.46876 20.6352 5.01042Z" fill="#current"/>
<path d="M8.33301 9.375H4.16634C3.02051 9.375 2.08301 10.3125 2.08301 11.4583V13.5417C2.08301 14.6875 3.02051 15.625 4.16634 15.625H5.20801V18.75C5.20801 19.3229 5.67676 19.7917 6.24967 19.7917C6.82259 19.7917 7.29134 19.3229 7.29134 18.75V15.625H8.33301L13.5413 18.75V6.25L8.33301 9.375Z" fill="#current"/>
<path d="M16.1455 12.5C16.1455 11.1146 15.5413 9.8646 14.583 9.01044V15.9792C15.5413 15.1354 16.1455 13.8854 16.1455 12.5Z" fill="#96A2AC"/>
</g>
<defs>
<clipPath id="clip0_2851_23863">
<rect width="25" height="25" fill="white"/>
</clipPath>
</defs>
</svg>
