<svg width="38" height="38" viewBox="0 0 38 38" fill="none" xmlns="http://www.w3.org/2000/svg">
<circle cx="19.9062" cy="19" r="19" fill="#F4F4F5"/>
<path d="M20.4194 30.4633C21.715 30.4633 22.7643 29.4139 22.7643 28.1184H18.0744C18.0744 29.4139 19.1238 30.4633 20.4194 30.4633ZM27.4543 23.4284V17.566C27.4543 13.9607 25.5373 10.9533 22.1781 10.156V9.35869C22.1781 8.38554 21.3925 7.59998 20.4194 7.59998C19.4462 7.59998 18.6607 8.38554 18.6607 9.35869V10.156C15.3015 10.9533 13.3845 13.9607 13.3845 17.566V23.4284L11.0396 25.7734V26.9459H29.7992V25.7734L27.4543 23.4284Z" fill="#9B9FAB"/>
<circle cx="26.2395" cy="12.6667" r="3.8" fill="white"/>
<circle cx="26.2394" cy="12.6666" r="2.53333" fill="#FF3D3D"/>
</svg>
