<svg width="25" height="25" viewBox="0 0 25 25" fill="currentColor" xmlns="http://www.w3.org/2000/svg">
<g clip-path="url(#clip0_2851_23870)">
<path d="M20.833 3.125H6.24967C5.10384 3.125 4.16634 4.0625 4.16634 5.20833V13.5417C4.16634 15.8438 6.03092 17.7083 8.33301 17.7083H14.583C16.8851 17.7083 18.7497 15.8438 18.7497 13.5417V10.4167H20.833C21.9788 10.4167 22.9163 9.47917 22.9163 8.33333V5.20833C22.9163 4.0625 21.9788 3.125 20.833 3.125ZM20.833 8.33333H18.7497V5.20833H20.833V8.33333ZM3.12467 21.875H19.7913C20.3643 21.875 20.833 21.4062 20.833 20.8333C20.833 20.2604 20.3643 19.7917 19.7913 19.7917H3.12467C2.55176 19.7917 2.08301 20.2604 2.08301 20.8333C2.08301 21.4062 2.55176 21.875 3.12467 21.875Z" fill="current"/>
</g>
<defs>
<clipPath id="clip0_2851_23870">
<rect width="25" height="25" fill="white"/>
</clipPath>
</defs>
</svg>
