<svg width="25" height="25" viewBox="0 0 25 25" fill="currentColor" xmlns="http://www.w3.org/2000/svg">
<g clip-path="url(#clip0_2851_23880)">
<path d="M20.2395 13.5208C20.2812 13.1875 20.3125 12.8542 20.3125 12.5C20.3125 12.1458 20.2812 11.8125 20.2395 11.4792L22.4375 9.76043C22.6354 9.60418 22.6875 9.32293 22.5625 9.09376L20.4791 5.48959C20.3541 5.26043 20.0729 5.17709 19.8437 5.26043L17.25 6.30209C16.7083 5.88543 16.125 5.54168 15.4895 5.28126L15.0937 2.52084C15.0625 2.27084 14.8437 2.08334 14.5833 2.08334H10.4166C10.1562 2.08334 9.93745 2.27084 9.9062 2.52084L9.51037 5.28126C8.87495 5.54168 8.29162 5.89584 7.74995 6.30209L5.1562 5.26043C4.91662 5.16668 4.64579 5.26043 4.52079 5.48959L2.43745 9.09376C2.30204 9.32293 2.36454 9.60418 2.56245 9.76043L4.76037 11.4792C4.7187 11.8125 4.68745 12.1563 4.68745 12.5C4.68745 12.8438 4.7187 13.1875 4.76037 13.5208L2.56245 15.2396C2.36454 15.3958 2.31245 15.6771 2.43745 15.9063L4.52079 19.5104C4.64579 19.7396 4.92704 19.8229 5.1562 19.7396L7.74995 18.6979C8.29162 19.1146 8.87495 19.4583 9.51037 19.7188L9.9062 22.4792C9.93745 22.7292 10.1562 22.9167 10.4166 22.9167H14.5833C14.8437 22.9167 15.0625 22.7292 15.0937 22.4792L15.4895 19.7188C16.125 19.4583 16.7083 19.1042 17.25 18.6979L19.8437 19.7396C20.0833 19.8333 20.3541 19.7396 20.4791 19.5104L22.5625 15.9063C22.6875 15.6771 22.6354 15.3958 22.4375 15.2396L20.2395 13.5208ZM12.5 16.1458C10.4895 16.1458 8.85412 14.5104 8.85412 12.5C8.85412 10.4896 10.4895 8.85418 12.5 8.85418C14.5104 8.85418 16.1458 10.4896 16.1458 12.5C16.1458 14.5104 14.5104 16.1458 12.5 16.1458Z" fill="current"/>
</g>
<defs>
<clipPath id="clip0_2851_23880">
<rect width="25" height="25" fill="white"/>
</clipPath>
</defs>
</svg>
