<svg width="38" height="38" viewBox="0 0 38 38" fill="none" xmlns="http://www.w3.org/2000/svg">
<path d="M19 38C29.4934 38 38 29.4934 38 19C38 8.50659 29.4934 0 19 0C8.50659 0 0 8.50659 0 19C0 29.4934 8.50659 38 19 38Z" fill="#E9EBED"/>
<path d="M19.0001 17.6429C21.2487 17.6429 23.0716 15.82 23.0716 13.5714C23.0716 11.3228 21.2487 9.5 19.0001 9.5C16.7516 9.5 14.9287 11.3228 14.9287 13.5714C14.9287 15.82 16.7516 17.6429 19.0001 17.6429Z" fill="white"/>
<path d="M14.9286 19H23.0714C26.0707 19 28.5 21.4293 28.5 24.4286C28.5 26.6814 26.6814 28.5 24.4286 28.5H13.5714C11.3186 28.5 9.5 26.6814 9.5 24.4286C9.5 21.4293 11.9293 19 14.9286 19Z" fill="white"/>
</svg>
