<svg width="25" height="25" viewBox="0 0 25 25" fill="currentColor" xmlns="http://www.w3.org/2000/svg">
<path d="M23.0469 7.03125H1.95312C1.30592 7.03125 0.78125 7.55592 0.78125 8.20312V21.4844C0.78125 22.1316 1.30592 22.6562 1.95312 22.6562H23.0469C23.6941 22.6562 24.2188 22.1316 24.2188 21.4844V8.20312C24.2188 7.55592 23.6941 7.03125 23.0469 7.03125Z" fill="#f5f5f5"/>
<path d="M6.64062 14.8438C7.93504 14.8438 8.98438 13.7944 8.98438 12.5C8.98438 11.2056 7.93504 10.1562 6.64062 10.1562C5.34621 10.1562 4.29688 11.2056 4.29688 12.5C4.29688 13.7944 5.34621 14.8438 6.64062 14.8438Z" fill="current"/>
<path d="M5.07812 16.4062H8.20312C8.51393 16.4062 8.812 16.5297 9.03177 16.7495C9.25153 16.9693 9.375 17.2673 9.375 17.5781V19.5312H3.90625V17.5781C3.90625 17.2673 4.02971 16.9693 4.24948 16.7495C4.46925 16.5297 4.76732 16.4062 5.07812 16.4062Z" fill="current"/>
<path d="M10.5469 4.29688C10.5469 3.21819 11.4213 2.34375 12.5 2.34375C13.5787 2.34375 14.4531 3.21819 14.4531 4.29688V6.64062C14.4531 7.71931 13.5787 8.59375 12.5 8.59375C11.4213 8.59375 10.5469 7.71931 10.5469 6.64062V4.29688Z" fill="current"/>
<path d="M9.76563 12.5C9.76563 11.8819 9.58235 11.2777 9.23897 10.7638C8.89559 10.2499 8.40753 9.8494 7.83651 9.61288C7.26549 9.37635 6.63716 9.31447 6.03097 9.43505C5.42478 9.55563 4.86796 9.85325 4.43092 10.2903C3.99388 10.7273 3.69625 11.2842 3.57567 11.8903C3.45509 12.4965 3.51698 13.1249 3.7535 13.6959C3.99003 14.2669 4.39057 14.755 4.90447 15.0983C5.41837 15.4417 6.02256 15.625 6.64063 15.625C7.46914 15.6241 8.26344 15.2945 8.84929 14.7087C9.43513 14.1228 9.76468 13.3285 9.76563 12.5ZM6.64063 14.0625C6.33159 14.0625 6.0295 13.9709 5.77255 13.7992C5.5156 13.6275 5.31533 13.3835 5.19706 13.0979C5.0788 12.8124 5.04786 12.4983 5.10815 12.1952C5.16844 11.8921 5.31725 11.6137 5.53577 11.3951C5.75429 11.1766 6.0327 11.0278 6.3358 10.9675C6.63889 10.9072 6.95306 10.9382 7.23857 11.0564C7.52408 11.1747 7.76811 11.375 7.9398 11.6319C8.11149 11.8889 8.20313 12.191 8.20313 12.5C8.20268 12.9143 8.03792 13.3114 7.74499 13.6044C7.45206 13.8973 7.05489 14.0621 6.64063 14.0625Z" fill="current"/>
<path d="M3.125 17.5781V19.5312C3.12501 19.7384 3.20732 19.9372 3.35383 20.0837C3.50034 20.2302 3.69905 20.3125 3.90625 20.3125H9.375C9.5822 20.3125 9.78091 20.2302 9.92742 20.0837C10.0739 19.9372 10.1562 19.7384 10.1562 19.5312V17.5781C10.1556 17.0603 9.94967 16.5639 9.58352 16.1977C9.21737 15.8316 8.72094 15.6256 8.20312 15.625H5.07812C4.56031 15.6256 4.06388 15.8316 3.69773 16.1977C3.33158 16.5639 3.12561 17.0603 3.125 17.5781ZM8.20312 17.1875C8.30669 17.1876 8.40599 17.2288 8.47922 17.302C8.55246 17.3753 8.59365 17.4746 8.59375 17.5781V18.75H4.6875V17.5781C4.6876 17.4746 4.72879 17.3753 4.80203 17.302C4.87526 17.2288 4.97456 17.1876 5.07812 17.1875H8.20312Z" fill="current"/>
<path d="M21.0938 12.5H19.5312C19.324 12.5 19.1253 12.5823 18.9788 12.7288C18.8323 12.8753 18.75 13.074 18.75 13.2812C18.75 13.4885 18.8323 13.6872 18.9788 13.8337C19.1253 13.9802 19.324 14.0625 19.5312 14.0625H21.0938C21.301 14.0625 21.4997 13.9802 21.6462 13.8337C21.7927 13.6872 21.875 13.4885 21.875 13.2812C21.875 13.074 21.7927 12.8753 21.6462 12.7288C21.4997 12.5823 21.301 12.5 21.0938 12.5Z" fill="current"/>
<path d="M21.0938 15.625H12.5C12.2928 15.625 12.0941 15.7073 11.9476 15.8538C11.8011 16.0003 11.7188 16.199 11.7188 16.4062C11.7188 16.6135 11.8011 16.8122 11.9476 16.9587C12.0941 17.1052 12.2928 17.1875 12.5 17.1875H21.0938C21.301 17.1875 21.4997 17.1052 21.6462 16.9587C21.7927 16.8122 21.875 16.6135 21.875 16.4062C21.875 16.199 21.7927 16.0003 21.6462 15.8538C21.4997 15.7073 21.301 15.625 21.0938 15.625Z" fill="current"/>
<path d="M21.0938 18.75H12.5C12.2928 18.75 12.0941 18.8323 11.9476 18.9788C11.8011 19.1253 11.7188 19.324 11.7188 19.5312C11.7188 19.7385 11.8011 19.9372 11.9476 20.0837C12.0941 20.2302 12.2928 20.3125 12.5 20.3125H21.0938C21.301 20.3125 21.4997 20.2302 21.6462 20.0837C21.7927 19.9372 21.875 19.7385 21.875 19.5312C21.875 19.324 21.7927 19.1253 21.6462 18.9788C21.4997 18.8323 21.301 18.75 21.0938 18.75Z" fill="current"/>
<path d="M16.4062 14.0625C16.8377 14.0625 17.1875 13.7127 17.1875 13.2812C17.1875 12.8498 16.8377 12.5 16.4062 12.5C15.9748 12.5 15.625 12.8498 15.625 13.2812C15.625 13.7127 15.9748 14.0625 16.4062 14.0625Z" fill="current"/>
</svg>
